<?xml version="1.0" encoding="utf-8"?>
<!-- Generator: Adobe Illustrator 21.1.0, SVG Export Plug-In . SVG Version: 6.00 Build 0)  -->
<svg version="1.1" id="Layer_1" xmlns="http://www.w3.org/2000/svg" xmlns:xlink="http://www.w3.org/1999/xlink" x="0px" y="0px"
	 viewBox="0 0 52 52" style="enable-background:new 0 0 52 52;" xml:space="preserve">
<style type="text/css">
	.st0{fill:url(#SVGID_1_);}
	.st1{fill:url(#SVGID_2_);}
	.st2{fill:#E8587A;}
	.st3{fill:#0178B6;}
	.st4{fill:#FFFFFF;}
</style>
<linearGradient id="SVGID_1_" gradientUnits="userSpaceOnUse" x1="7.6152" y1="44.3858" x2="44.3848" y2="7.6162">
	<stop  offset="0" style="stop-color:#FCBD51"/>
	<stop  offset="0.5" style="stop-color:#DE297B"/>
	<stop  offset="1" style="stop-color:#7650A0"/>
</linearGradient>
<circle class="st0" cx="26" cy="26" r="26"/>
<path class="st4" d="M26,16.2c3.2,0,3.6,0,4.9,0.1c3.3,0.1,4.8,1.7,4.9,4.9c0.1,1.3,0.1,1.6,0.1,4.8c0,3.2,0,3.6-0.1,4.8
	c-0.1,3.2-1.7,4.8-4.9,4.9c-1.3,0.1-1.6,0.1-4.9,0.1c-3.2,0-3.6,0-4.8-0.1c-3.3-0.1-4.8-1.7-4.9-4.9c-0.1-1.3-0.1-1.6-0.1-4.8
	c0-3.2,0-3.6,0.1-4.8c0.1-3.2,1.7-4.8,4.9-4.9C22.4,16.2,22.8,16.2,26,16.2z M26,14c-3.3,0-3.7,0-4.9,0.1c-4.4,0.2-6.8,2.6-7,7
	C14,22.3,14,22.7,14,26s0,3.7,0.1,4.9c0.2,4.4,2.6,6.8,7,7C22.3,38,22.7,38,26,38s3.7,0,4.9-0.1c4.4-0.2,6.8-2.6,7-7
	C38,29.7,38,29.3,38,26s0-3.7-0.1-4.9c-0.2-4.4-2.6-6.8-7-7C29.7,14,29.3,14,26,14z M26,19.8c-3.4,0-6.2,2.8-6.2,6.2
	s2.8,6.2,6.2,6.2s6.2-2.8,6.2-6.2C32.2,22.6,29.4,19.8,26,19.8z M26,30c-2.2,0-4-1.8-4-4c0-2.2,1.8-4,4-4s4,1.8,4,4
	C30,28.2,28.2,30,26,30z M32.4,18.2c-0.8,0-1.4,0.6-1.4,1.4s0.6,1.4,1.4,1.4c0.8,0,1.4-0.6,1.4-1.4S33.2,18.2,32.4,18.2z"/>
</svg>
