<?xml version="1.0" encoding="utf-8"?>
<!-- Generator: Adobe Illustrator 21.1.0, SVG Export Plug-In . SVG Version: 6.00 Build 0)  -->
<svg version="1.1" id="Layer_1" xmlns="http://www.w3.org/2000/svg" xmlns:xlink="http://www.w3.org/1999/xlink" x="0px" y="0px"
	 viewBox="0 0 52 52" style="enable-background:new 0 0 52 52;" xml:space="preserve">
<style type="text/css">
	.st0{fill:url(#SVGID_1_);}
	.st1{fill:url(#SVGID_2_);}
	.st2{fill:#E8587A;}
	.st3{fill:#0178B6;}
	.st4{fill:#FFFFFF;}
</style>
<circle class="st3" cx="26" cy="26" r="26"/>
<path class="st4" d="M21,19.6c0,1-0.8,1.8-1.8,1.8s-1.8-0.8-1.8-1.8c0-1,0.8-1.8,1.8-1.8S21,18.6,21,19.6z M21,22.8h-3.6v11.5H21
	V22.8z M26.7,22.8h-3.6v11.5h3.6v-6c0-3.3,4.3-3.6,4.3,0v6h3.6V27c0-5.6-6.4-5.4-7.9-2.7C26.7,24.3,26.7,22.8,26.7,22.8z"/>
</svg>
